<?xml version="1.0" encoding="UTF-8" standalone="no"?>
<svg xmlns="http://www.w3.org/2000/svg" version="1.1" viewBox="0 0 140.56465 140.56449" height="140.56448mm" width="140.56465mm">
  <g id="g13466">
    <path
       d="M 53.57141,0.00414208 A 78.524664,60.935141 45 0 0 14.757035,14.756868 78.524664,60.935141 45 0 0 27.194656,113.36983 78.524664,60.935141 45 0 0 125.80762,125.80745 78.524664,60.935141 45 0 0 113.37,27.194489 78.524664,60.935141 45 0 0 53.57141,0.00414208 Z"
       fill="#2e2e2e" />
    <path
       d="m 66.457358,51.636479 c -0.558918,0.005 -1.1183,0.0668 -1.664671,0.1808 -1.36363,0.28457 -2.669339,0.89221 -3.710779,1.81735 -1.454593,1.29216 -2.334144,3.15479 -2.650795,5.07449 -0.27947,1.69426 -0.140137,3.46312 0.454754,5.07394 0.584499,1.58269 1.594315,2.98665 2.801826,4.16498 1.912459,1.86624 4.282513,3.1608 6.709393,4.30775 l -10.766888,16.58055 3.11161,0 10.050859,-15.47757 c 2.63343,1.19294 5.27253,2.42777 7.47999,4.28294 0.98935,0.83145 1.90352,1.81531 2.34763,3.02893 0.53408,1.45948 0.30829,3.15966 -0.53027,4.46815 -0.29532,0.4608 -0.6701,0.88237 -1.14543,1.15369 -0.23767,0.13566 -0.49875,0.23205 -0.76949,0.27175 -0.27076,0.0398 -0.55119,0.0225 -0.81139,-0.0623 -0.48705,-0.15868 -0.8758,-0.54295 -1.13551,-0.98447 -0.31805,-0.54066 -0.46133,-1.16301 -0.62177,-1.76941 -0.16044,-0.60639 -0.35107,-1.22367 -0.74193,-1.71427 -0.38271,-0.4804 -0.94733,-0.80964 -1.55223,-0.91612 -0.60489,-0.10649 -1.24432,0.008 -1.77932,0.30978 -0.63059,0.35562 -1.10686,0.96365 -1.33945,1.64923 -0.23258,0.68558 -0.22772,1.44284 -0.0242,2.13762 0.36657,1.25183 1.35097,2.259 2.4992,2.87789 1.1069,0.5966 2.3784,0.87039 3.63527,0.83289 1.96715,-0.0586 3.89874,-0.89129 5.30104,-2.27211 1.40187,-1.38038 2.25837,-3.27291 2.49921,-5.22552 0.20133,-1.6322 -0.0151,-3.31165 -0.60634,-4.84629 -0.75399,-1.95727 -2.1008,-3.65336 -3.71023,-4.99842 -1.69051,-1.41282 -3.64776,-2.44159 -5.66098,-3.3569 l 10.71342,-16.49732 -3.11161,0 -10.02495,15.43734 c -2.260002,-0.96572 -4.536812,-1.94824 -6.531902,-3.38281 -0.99145,-0.7129 -1.916927,-1.54589 -2.574728,-2.57473 -0.78324,-1.22504 -1.156603,-2.73275 -0.908953,-4.16553 0.122942,-0.71125 0.403352,-1.4086 0.88911,-1.94248 0.24288,-0.26694 0.535294,-0.49022 0.862652,-0.64217 0.327349,-0.15198 0.689446,-0.23158 1.050067,-0.21718 0.4563,0.0181 0.902259,0.1871 1.269447,0.45861 0.367191,0.27151 0.656547,0.64297 0.851077,1.05613 0.199659,0.42405 0.300624,0.88632 0.413961,1.34111 0.113341,0.45479 0.243922,0.91336 0.494993,1.30913 0.295418,0.46568 0.74876,0.82245 1.257322,1.03574 0.508552,0.21325 1.070234,0.28675 1.620574,0.25135 0.54849,-0.0353 1.09468,-0.17975 1.56765,-0.45971 0.47298,-0.27995 0.86923,-0.69955 1.08259,-1.20606 0.22347,-0.53043 0.23815,-1.13405 0.10914,-1.69499 -0.12899,-0.56094 -0.39498,-1.08313 -0.71493,-1.56159 -0.79009,-1.18152 -1.93345,-2.13106 -3.256575,-2.65025 -0.865948,-0.33979 -1.795882,-0.49196 -2.727412,-0.48396 z m 15.661679,11.21227 a 2.0578951,2.0578951 0 0 0 -2.05768,2.05768 2.0578951,2.0578951 0 0 0 2.05768,2.05824 2.0578951,2.0578951 0 0 0 2.05824,-2.05824 2.0578951,2.0578951 0 0 0 -2.05824,-2.05768 z m -21.768592,11.17203 a 2.0578951,2.0578951 0 0 0 -2.057688,2.05769 2.0578951,2.0578951 0 0 0 2.057688,2.05768 2.0578951,2.0578951 0 0 0 2.058238,-2.05768 2.0578951,2.0578951 0 0 0 -2.058238,-2.05769 z"
       fill="#fdefba" />
    <path
       d="m 30.219725,19.421801 a 1.0288666,1.0288666 0 0 1 1.028567,1.029121 l 0,2.278174 c 0.254613,2.607764 1.383262,5.07111 2.87955,7.222021 1.496286,2.1509 3.355225,4.021238 5.231585,5.850046 1.876354,1.8288 3.787611,3.636383 5.411831,5.692406 1.624217,2.056 2.964236,4.38934 3.533289,6.94696 0.846379,3.80405 -0.150015,7.97493 -2.624336,10.98572 -0.06765,0.0526 -0.154116,0.0806 -0.239779,0.0777 -0.08566,-0.003 -0.169869,-0.037 -0.233714,-0.0942 -0.07493,-0.0671 -0.120542,-0.16622 -0.122922,-0.26679 -0.0025,-0.10057 0.03858,-0.20116 0.110242,-0.27175 1.64811,-1.88972 2.588088,-4.3833 2.598431,-6.89074 0.01033,-2.50742 -0.909193,-5.00789 -2.541653,-6.91114 -1.18532,-1.38194 -2.70718,-2.43339 -4.275227,-3.35855 -1.568049,-0.925186 -3.202116,-1.741192 -4.722814,-2.742302 -1.876476,-1.235329 -3.565384,-2.75139 -5.004483,-4.47642 l 0,29.369852 a 9.1870318,7.1291365 45 0 1 11.205656,1.75728 9.1870318,7.1291365 45 0 1 1.455759,11.53693 9.1870318,7.1291365 45 0 1 -4.541461,1.72586 9.1870318,7.1291365 45 0 1 -6.996026,-3.18107 9.1870318,7.1291365 45 0 1 -3.171693,-7.08256 l -0.01047,0 0,-37.019069 c -0.0028,-0.004 -0.0056,-0.0092 -0.0083,-0.01377 l 0.0083,-11.134547 5.64e-4,0 a 1.0288666,1.0288666 0 0 1 1.029118,-1.02912 z"
       fill="#ff8a80" />
    <path
       d="m 29.534565,83.362219 c 0,0 0,0 5.262453,11.28669 1.184285,2.54 1.184881,2.53982 2.369123,0 2.202105,-4.72282 2.202105,-4.72282 2.202105,-4.72282 0,0 0,0 2.202105,4.72282 1.18432,2.53999 1.184814,2.53979 2.369123,0 5.263004,-11.28669 5.263004,-11.28669 5.263004,-11.28669 l -2.271007,0 -4.176558,8.95615 -3.386667,-7.26281 -3.386667,7.26281 -4.176007,-8.95615 z"
       fill="#e1bee7" />
    <path
       d="m 104.61946,62.438089 a 7.1291365,9.1870318 45 0 1 4.54146,1.72586 7.1291365,9.1870318 45 0 1 -1.45521,11.53693 7.1291365,9.1870318 45 0 1 -11.206203,1.75728 l 0,29.370401 c 1.4391,-1.72503 3.12856,-3.24164 5.005033,-4.47697 1.52071,-1.0011 3.15421,-1.81712 4.72226,-2.742301 1.56805,-0.92517 3.08991,-1.97661 4.27523,-3.35855 1.63247,-1.90326 2.5526,-4.40371 2.5422,-6.91114 -0.0103,-2.50744 -0.95031,-5.00102 -2.59842,-6.89074 -0.0717,-0.0706 -0.11225,-0.17118 -0.11025,-0.27175 0.002,-0.10057 0.0475,-0.19969 0.12237,-0.26679 0.0638,-0.0572 0.14857,-0.0907 0.23427,-0.0937 0.0857,-0.003 0.17153,0.0246 0.23922,0.0772 2.47432,3.01079 3.47127,7.18168 2.62489,10.98572 -0.56904,2.55762 -1.90908,4.89095 -3.53329,6.94696 -1.62422,2.056011 -3.53547,3.864141 -5.41183,5.692961 -1.87635,1.8288 -3.73585,3.69859 -5.232133,5.84949 -1.49628,2.1509 -2.62494,4.61425 -2.87955,7.22202 l 0,2.27873 a 1.0288666,1.0288666 0 0 1 -1.02857,1.02856 1.0288666,1.0288666 0 0 1 -1.02857,-1.02856 l -5.6e-4,0 -0.008,-11.1351 c 0.002,-0.005 0.005,-0.01 0.008,-0.0138 l 0,-37.019061 0.01,0 a 7.1291365,9.1870318 45 0 1 3.17169,-7.08257 7.1291365,9.1870318 45 0 1 6.996033,-3.18106 z"
       fill="#b3e5fc" />
    <path
       d="m 94.785777,57.957819 c 0,0 0,0 5.262453,-11.28669 1.18429,-2.54 1.18489,-2.53982 2.36913,0 2.2021,4.72282 2.2021,4.72282 2.2021,4.72282 0,0 0,0 2.20211,-4.72282 1.18432,-2.53999 1.18481,-2.53979 2.36912,0 5.263,11.28669 5.263,11.28669 5.263,11.28669 l -2.271,0 -4.17656,-8.95615 -3.38667,7.26281 -3.38666,-7.26281 -4.176013,8.95615 z"
       fill="#a7ffeb" />
  </g>
</svg>
