<svg height="186.74606" viewBox="0 0 49.409897 49.409896" width="186.74606" xmlns="http://www.w3.org/2000/svg"><g transform="translate(5.914112 -253.86182)"><circle cx="18.790836" cy="278.56677" fill="#2e2e2e" r="24.704948"/><path d="m18.588785 267.83616c-.745226 0-1.355783.17571-1.8526.52762s-.734839.86924-.734839 1.55236c0 .41402.08295.75562.248563 1.03508.165607.28981.383047.50725.652157.65215.269109.14491.558656.26909.889868.37259.320861.10351.641855.19677.973067.27957.320861.0828.610423.1864.879533.2899.269109.11386.486551.26893.652157.47594.165605.20701.258899.46569.258899.76585 0 .39331-.144804.71432-.424264.96273s-.724648.37259-1.335319.37259c-.538219 0-1.014321-.14476-1.428336-.45527-.424365-.31051-.703652-.68304-.827857-1.1281-.0207-.0414-.03099-.12439-.04134-.22789s-.03146-.17616-.07286-.20722c-.0414-.0207-.113522-.0414-.227376-.0414h-.27957c-.103502 0-.165836.0103-.196887.031-.03105.0207-.04134.0624-.04134.12454v.093c0 .0414.01034.0827.01034.10335v1.92547c0 .0414-.01034.0826-.01034.12402v.10335c0 .0725.01028.1245.05168.14521.03105.031.103703.0413.217557.0413h.27957c.0621 0 .123963.00007.165364-.0103.0414-.0104.08315-.0309.114205-.062.0207-.031.04131-.0625.06201-.0832.01035-.0207.03098-.0516.05168-.10335.0207-.0517.04131-.093.06201-.12403.07245-.13455.123979-.20722.15503-.20722.0207 0 .08303.0417.196887.1142.486467.39331 1.107358.5793 1.862935.5793.890131 0 1.614591-.20714 2.173512-.62115.548568-.41402.828373-.98287.828373-1.70739 0-.43472-.09329-.80777-.2589-1.11828-.165605-.31051-.383048-.54857-.652156-.71417-.26911-.16561-.568992-.30008-.900204-.41393-.331211-.11385-.65219-.21744-.983402-.30024-.331213-.0828-.621276-.17555-.890385-.27905-.26911-.1035-.496371-.24882-.661975-.43512-.165607-.18631-.248564-.42437-.248564-.70383 0-.31051.124178-.54855.372587-.7245.248409-.17596.620944-.26872 1.117761-.26872.424365 0 .817495.12419 1.190108.36225.362262.23806.61062.55854.745174.97255 0 .031.01085.10371.02119.21756.01035.11385.03096.1968.06201.2589.02069.0621.07224.093.144695.093h.382921c.103505 0 .165838-.0206.19689-.0723.03105-.0414.05167-.12438.05167-.22789v-2.00815c0-.0931-.02064-.15498-.04134-.18603-.02069-.0207-.08306-.0414-.176218-.0414h-.206706c-.165606 0-.269174.0103-.310576.031-.05175.0207-.103793.0723-.155546.15503l-.103352.16588c-.0828.1242-.134313.1757-.165364.1757-.0207 0-.09335-.0412-.217558-.14469-.455416-.32086-.993852-.48628-1.625224-.48628zm8.559166.0827c-.144899 0-.207222.0623-.207222.18655v.37259c0 .12421.01082.18601.03152.20671.02069.0207.0825.031.206705.031h.53847c.165605 0 .269174.0207.310576.0517.03105.031.05168.11401.05168.24856v5.44412.14521c0 .0621.01035.10332.01035.12402 0 .13456-.07267.19689-.207222.19689h-.73484c-.1035 0-.154999.0206-.1757.0413-.02069.0207-.03152.0928-.03152.21704v.20722c0 .14491.01082.23819.03152.26924.02069.031.09284.0413.217041.0413h3.374472c.124206 0 .196339-.0104.21704-.0413.02069-.0207.04134-.10366.04134-.24857v-.33124c0-.11385-.07216-.1757-.196368-.1757-.03105 0-.07277.0103-.134877.0103-.0621.0104-.113644.0103-.144693.0103h-.537953c-.155255 0-.248518-.0104-.279569-.031-.0414-.0207-.05168-.0934-.05168-.21756v-2.08049c0-.14491.0618-.21704.206706-.21704.02069 0 .06243.0103.124539.0103h.144695.869196c.952236 0 1.666359-.20712 2.163175-.63148.486468-.42437.735357-.99375.735357-1.69757 0-.68313-.248386-1.20041-.724504-1.57303-.476115-.36226-1.201094-.54881-2.174028-.54881h-3.394625c-.0414 0-.0831-.00003-.145209-.0103-.0621 0-.113659-.0103-.13436-.0103zm-23.4729843.0103c-.082803 0-.1451809.0206-.1658816.062-.031051.0414-.041341.11404-.041341.22789v.34158c0 .0828.010305.12401.031006.13436.020701.0207.083048.0207.1865518.0207h.7761801c.062102 0 .092987.0206.113688.0414.020701.0207.031006.0831.031006.16588v5.54746c0 .22771-.020611.3627-.062012.40411-.041402.0414-.1655649.0517-.3829225.0517h-.4966102c-.093153 0-.1451806.0206-.1658813.0413-.020701.031-.031006.10368-.031006.22789v.23771c0 .11385.010274.1865.051676.2279.031051.0414.093414.0517.1762165.0517h.1343589c.062102 0 .1239631-.0103.1653645-.0103h3.9232747c.8797809 0 1.5831143-.17622 2.1109824-.52813.517518-.35192.787031-.90016.787031-1.64538 0-.52787-.186555-.94213-.538467-1.25264-.3622632-.31052-.8589766-.50732-1.4903489-.60048 1.1385394-.2277 1.7182409-.8383 1.7182409-1.82159 0-.64172-.258661-1.11782-.7761795-1.43868-.5175181-.31051-1.1904525-.47594-2.0184813-.47594h-3.7987341-.1343588c-.051752 0-.082652-.0103-.1033526-.0103zm2.6287798.78651h1.4076662c.890131 0 1.3456541.4349 1.3456541 1.29398 0 .86943-.4555231 1.29346-1.3456541 1.29346h-1.4180013c-.1242044 0-.2071772-.0206-.2382285-.0724-.041401-.0414-.051676-.15528-.051676-.34158v-1.84226c0-.15525.01029-.24852.041341-.27957.020701-.031.1139939-.0517.2588987-.0517zm23.5045075 0h1.013892c.890132 0 1.345655.45553 1.345655 1.34566 0 .47611-.124209.85897-.351917 1.13843-.227709.27946-.559023.41393-.993738.41393h-1.013892c-.165605 0-.258852-.0206-.289904-.062-.03105-.0414-.04134-.15526-.04134-.36226v-2.22518c0-.11385.01027-.18653.05168-.20723.03105-.0207.124314-.0413.279569-.0413zm-23.5355132 3.36414h1.5420247c.424365 0 .7763047.11387 1.0454143.34158.2691093.22771.4035927.57963.4035927 1.05575 0 .48646-.1448186.84871-.4139281 1.08676-.2691093.24841-.6210639.36225-1.0350789.36225h-1.4593424c-.1552554 0-.2485035-.0103-.2899048-.0413-.041402-.031-.062012-.10373-.062012-.20723v-2.21485c0-.1656.010274-.27951.051676-.32091.031051-.0414.103704-.062.2175579-.062z" fill="#eee"/><path d="m13.821634 281.795c-.0276 0-.06228.007-.110588.007-.0552.007-.0897.007-.117305.007h-1.676384-.09663c-.0414 0-.06216-.007-.07597-.007-.069 0-.110558.0137-.131258.0413-.0276.0276-.03462.0967-.03462.19327v.20671c0 .0276-.0067.0554-.0067.0899v.076c0 .0483.0072.0828.02791.0966.0207.0207.06174.0274.130741.0274h.227893c.110404 0 .179106.0349.206706.10387l.05529.1447c.0207.0621.03462.11037.03462.13797s-.02061.0967-.06201.19327l-.600481 1.40767c-.0276.0759-.07587.18633-.137976.33125-.06889.15155-.10346.24147-.117305.26923-.07575.16524-.124191.24805-.137976.24805-.0276 0-.0618-.0481-.0894-.1447-.0414-.10351-.09001-.2416-.145211-.40721-.0552-.1656-.08937-.28963-.110071-.35863l-.545186-1.55288c-.0138-.0276-.02754-.0692-.04134-.11059-.0207-.0414-.03477-.0757-.04857-.10335-.0138-.0276-.01395-.048-.01395-.0687 0-.0552.07624-.0899.241846-.0899h.275952c.0759 0 .124176-.007.137976-.0274.0138-.0207.02739-.0827.02739-.17932v-.33125c0-.0759-.01341-.12433-.03411-.15193-.0276-.0276-.06228-.0413-.110587-.0413-.0138 0-.04128.007-.08268.007h-.089947-2.008146-.1100709c-.048302 0-.082834-.007-.096635-.007-.1104038 0-.1586466.0622-.1586466.1726v.36536c0 .0966.0065.15208.034106.16588.020701.0207.089918.0274.2072225.0274h.207223c.055202 0 .1034748.007.1379762.014.034503.007.061799.0206.0894.0413.020701.0276.034443.0415.041341.0553.0069.0138.02082.0483.034623.0966s.02082.0827.034623.10335l1.4350538 3.95376c.0069.0207.0141.0485.02791.0899.0138.0414.02049.0622.02739.076 0 .0138.01392.0274.03462.048.0138.0207.04113.0346.06873.0346.0276.007.069.007.117306.007h.310575c.0414 0 .0828.00026.117305-.007.0276 0 .05508-.007.08268-.007s.04855-.0136.06925-.0274c.0138-.0138.02754-.021.04134-.0279.0138-.007.02082-.0204.03462-.0481.0138-.0207.02049-.0348.02739-.0486l.02791-.0687c.0138-.0345.02031-.062.03411-.0827l.731738-1.73891c.0276-.069.138191-.35909.345198-.86971.069-.1656.110375-.25528.137977-.25528.0276 0 .07554.1108.130741.31781.0621.2346.158619.53105.296623.88986l.635103 1.6769.03462.10336c.0138.0552.02721.0897.03411.0966.0069.007.02098.0204.04857.0481.0207.0276.048.0419.0894.0419.0345.007.0831.007.145211.007h.248563c.0621 0 .117246-.00015.158647-.0139.0414-.007.06903-.0136.09663-.0274.0276-.007.04803-.0277.06873-.0553.0138-.0276.02754-.0553.04134-.076.0069-.0138.02082-.0481.03462-.10335.0138-.0552.02082-.0964.03462-.12402l1.331702-3.85042c.0276-.0966.04839-.15879.05529-.17259s.03457-.0344.07597-.062c.0414-.0207.11682-.0346.213423-.0346h.289905c.0759 0 .124511-.007.145211-.0207.0138-.0138.02739-.0481.02739-.10335v-.38654c0-.10351-.01392-.16585-.03462-.18655-.0207-.0138-.08958-.0274-.199987-.0274h-1.72496c-.124204 0-.193239.0137-.21394.0413-.0276.0276-.03462.11057-.03462.24857v.21394c0 .1035.01374.16533.04134.18603.0276.0276.103507.0346.234611.0346.158706 0 .262609.007.31781.0207.0483.0138.07545.0346.07545.076 0 .0207-.02715.10348-.07545.25528l-.476457 1.36633c-.0828.23461-.186219.52419-.296623.8692-.0828.2415-.138128.35915-.151928.35915-.0207 0-.06861-.152-.151412-.46251-.0414-.15181-.110619-.37955-.207223-.68316l-.517798-1.57303c-.0276-.0828-.03411-.13105-.03411-.15865 0-.0414.04824-.0692.158646-.0692h.158647c.103503 0 .165669-.007.19327-.0274.0276-.0138.04134-.0624.04134-.14521v-.38602c0-.069-.01374-.1109-.04134-.1385s-.07605-.0413-.131258-.0413zm7.561813.007c-.0621 0-.103658.0137-.131259.0413-.0276.0276-.03411.0898-.03411.1726v.33796c0 .0828.0065.13813.03411.15193.02069.0207.08286.0279.19327.0279h.317809c.0828 0 .144481.0136.172083.0274.0276.0207.04186.0552.04186.0966 0 .0276-.0071.0901-.01394.20051l-.145211 3.03599v.17259c0 .069-.01373.12382-.04134.15142-.0276.0276-.08256.0419-.165365.0419h-.345197c-.124206 0-.199958.0134-.220659.0341-.0276.0207-.03462.0829-.03462.19327v.31729c0 .0759.007.12433.03462.15193.02069.0276.05538.0346.110587.0346h.07545c.0414 0 .07627-.007.103867-.007h1.862937c.0828 0 .131045-.007.158647-.0274.02069-.0138.03462-.0554.03462-.11058v-.44132c0-.0621-.0069-.10351-.02066-.11731-.01378-.0138-.04128-.0279-.08268-.0279h-.421161c-.110405 0-.186158-.007-.22066-.0341-.0414-.0276-.05529-.0692-.05529-.13125 0-.0207-.000182-.0621.0067-.11731.0069-.0552.01394-.0964.01394-.12402l.0553-1.50431s-.000183-.13792.0067-.41392c0-.27601.0069-.51801.02066-.72502.0069-.20701.02064-.31006.04134-.31006.0276 0 .08979.13791.172601.41393.0759.2484.193209.62079.351914 1.10381l.800471 2.44274c.0276.0966.06213.15208.09663.16588.0276.0207.09682.0274.207221.0274h.517282c.0552 0 .103293-.007.144695-.0346.0345-.0276.05545-.0551.06924-.0827.01381-.0276.02754-.0691.04134-.13126.01379-.0552.02082-.0964.03462-.12402l.841811-2.49804c.0414-.1173.11044-.37271.21394-.75912.069-.27601.117094-.42065.144692-.42065.01381 0 .02753.0897.04134.25528.0069.17251.01378.37964.02066.62115l.0072.35864.0553 1.61489c0 .0414-.000183.0828.0067.13797 0 .0552.0067.0896.0067.10336 0 .0621-.0208.10365-.05529.13125-.03452.0276-.09615.0341-.192752.0341h-.331245c-.103505 0-.165672.0139-.19327.0346-.0276.0207-.03462.0623-.03462.13126v.40721c0 .069.0067.11004.02739.13074s.05557.0279.10387.0279h.07597c.0345 0 .06179-.007.0894-.007h2.332157c.110402 0 .172902-.007.200506-.0274.02069-.0138.03411-.0689.03411-.15864v-.40049c0-.0552-.01341-.0894-.03411-.11008-.02759-.0138-.07584-.0279-.158647-.0279h-.35915c-.110408 0-.179108-.0136-.206709-.0481-.03451-.0345-.04857-.0965-.04857-.17932v-.22117l-.117305-2.95331c0-.0276-.0067-.0552-.0067-.0966v-.0827c0-.0621.01376-.1035.04134-.1173.02759-.0138.103534-.0274.21394-.0274h.19327c.131104 0 .207013-.007.234611-.0346.02759-.0207.04134-.0897.04134-.21395v-.25528c0-.0897-.01376-.15171-.04134-.17931-.02759-.0276-.06934-.0486-.124539-.0486-.02069 0-.05523.007-.09663.007h-.110007-1.670182c-.0759 0-.137917.007-.179319.0207-.0483.0138-.08247.0415-.110069.076-.02759.0345-.0415.069-.0553.0966-.01379.0276-.03477.0755-.04857.13074-.01381.0621-.02754.11071-.04134.14521l-.572575 1.55959c-.151804.40712-.268962.74512-.337962 1.02113-.069.25531-.124482.3793-.165884.3793-.0414 0-.08982-.13119-.151929-.40721-.069-.26911-.165335-.62069-.303339-1.04851l-.565857-1.80816c-.0276-.069-.05508-.11727-.08268-.13797-.0276-.0138-.08308-.0274-.165883-.0274h-1.938898-.124024c-.0483 0-.07612-.007-.08992-.007z" fill="#bdbdbd"/><path d="m12.861486 259.77567c-.198239 0-.358118.15987-.358118.35812v18.07538h-12.14551162c-.19824462 0-.35760078.15936-.35760078.3576s.15935616.35812.35760078.35812h18.07538262v18.07538c0 .19825.159878.3576.358117.3576.198237 0 .357601-.15935.357601-.3576v-18.07538h18.074867c.198244 0 .3576-.15988.3576-.35812s-.159356-.3576-.3576-.3576h-12.298992v-18.07538c0-.19825-.159364-.35812-.3576-.35812-.198239 0-.358119.15987-.358119.35812v18.07538h-10.990026v-18.07538c0-.19825-.159365-.35812-.357601-.35812z" fill="#fff"/></g></svg>